<svg xmlns="http://www.w3.org/2000/svg" xmlns:xlink="http://www.w3.org/1999/xlink" version="1.1" x="0px" y="0px" viewBox="0 0 500 625" style="enable-background:new 0 0 500 500;" xml:space="preserve"><style type="text/css">
	.st0{fill-rule:evenodd;clip-rule:evenodd;}
</style><path class="st0" d="M153.27,420.04v19.91c0,4.42-3.58,8-8,8h-48.8c-4.42,0-8-3.58-8-8v-19.91H54.44  c-14.98,0-28.59-6.12-38.46-15.99C6.12,394.19,0,380.58,0,365.6V113.26v-6.77C0,91.51,6.12,77.9,15.99,68.03  s23.48-15.99,38.46-15.99h391.11c14.98,0,28.59,6.12,38.46,15.99C493.88,77.9,500,91.51,500,106.49v6.77V365.6  c0,14.98-6.12,28.59-15.99,38.46c-9.86,9.86-23.48,15.99-38.46,15.99h-34.02v19.91c0,4.42-3.58,8-8,8h-48.8c-4.42,0-8-3.58-8-8  v-19.91H153.27L153.27,420.04z M104.47,420.04v11.91h32.8v-11.91H104.47L104.47,420.04z M362.73,420.04v11.91h32.8v-11.91H362.73  L362.73,420.04z M223.18,170.74c-4.82,0-9.2,1.96-12.36,5.13c-3.17,3.17-5.13,7.54-5.13,12.36v35.13c0,0.41-0.17,0.78-0.44,1.05  c-0.27,0.27-0.65,0.44-1.05,0.44h-35.13c-4.82,0-9.2,1.96-12.36,5.13c-3.17,3.17-5.13,7.54-5.13,12.36v53.64  c0,4.82,1.96,9.2,5.13,12.36c3.17,3.17,7.54,5.13,12.36,5.13h35.13c0.41,0,0.78,0.17,1.05,0.44c0.27,0.27,0.44,0.65,0.44,1.05v35.13  c0,4.82,1.96,9.2,5.13,12.36c3.17,3.17,7.54,5.13,12.36,5.13h53.64c4.82,0,9.2-1.96,12.36-5.13c3.17-3.17,5.13-7.54,5.13-12.36  v-35.13c0-0.41,0.17-0.78,0.44-1.05c0.27-0.27,0.65-0.44,1.05-0.44h35.13c4.82,0,9.2-1.96,12.36-5.13  c3.17-3.17,5.13-7.54,5.13-12.36v-53.64c0-4.82-1.96-9.2-5.13-12.36c-3.17-3.17-7.54-5.13-12.36-5.13h-35.13  c-0.41,0-0.78-0.17-1.05-0.44c-0.27-0.27-0.44-0.65-0.44-1.05v-35.13c0-4.82-1.96-9.2-5.13-12.36c-3.17-3.17-7.54-5.13-12.36-5.13  H223.18L223.18,170.74z M276.82,186.74h-53.64c-0.41,0-0.78,0.17-1.05,0.44c-0.27,0.27-0.44,0.65-0.44,1.05v35.13  c0,4.82-1.96,9.2-5.13,12.36c-3.17,3.17-7.54,5.13-12.36,5.13h-35.13c-0.41,0-0.78,0.17-1.05,0.44c-0.27,0.27-0.44,0.65-0.44,1.05  v53.64c0,0.41,0.17,0.78,0.44,1.05c0.27,0.27,0.65,0.44,1.05,0.44h35.13c4.82,0,9.2,1.96,12.36,5.13c3.17,3.17,5.13,7.54,5.13,12.36  v35.13c0,0.41,0.17,0.78,0.44,1.05c0.27,0.27,0.65,0.44,1.05,0.44h53.64c0.41,0,0.78-0.17,1.05-0.44c0.27-0.27,0.44-0.65,0.44-1.05  v-35.13c0-4.82,1.96-9.2,5.13-12.36c3.17-3.17,7.54-5.13,12.36-5.13h35.13c0.41,0,0.78-0.17,1.05-0.44  c0.27-0.27,0.44-0.65,0.44-1.05v-53.64c0-0.41-0.17-0.78-0.44-1.05c-0.27-0.27-0.65-0.44-1.05-0.44h-35.13  c-4.82,0-9.2-1.96-12.36-5.13c-3.17-3.17-5.13-7.54-5.13-12.36v-35.13c0-0.41-0.17-0.78-0.44-1.05  C277.6,186.91,277.23,186.74,276.82,186.74L276.82,186.74z M16.02,105.26h59.15l0.02,0h50.88l0.02,0h247.8l0.02,0h50.88l0.02,0  h59.15c-0.32-10.08-4.58-19.21-11.28-25.91c-6.97-6.97-16.58-11.3-27.15-11.3H54.44c-10.56,0-20.17,4.33-27.15,11.3  C20.6,86.04,16.34,95.18,16.02,105.26L16.02,105.26z M484,121.26h-51.19v78.14c0,9.2-3.76,17.57-9.82,23.62  c-6.06,6.06-14.42,9.82-23.62,9.82c-9.2,0-17.57-3.76-23.62-9.82c-6.06-6.06-9.82-14.42-9.82-23.62v-78.14H134.08v78.14  c0,9.2-3.76,17.57-9.82,23.62c-6.06,6.06-14.42,9.82-23.62,9.82c-9.2,0-17.57-3.76-23.62-9.82c-6.06-6.06-9.82-14.42-9.82-23.62  v-78.14H16V365.6c0,10.56,4.33,20.17,11.3,27.15c6.97,6.97,16.58,11.3,27.15,11.3h42.02h48.8h209.47h48.8h42.02  c10.56,0,20.17-4.33,27.15-11.3c6.97-6.97,11.3-16.58,11.3-27.15V121.26L484,121.26z M416.81,121.26h-34.88v78.14  c0,4.79,1.96,9.15,5.13,12.31c3.17,3.16,7.52,5.13,12.31,5.13c4.79,0,9.15-1.97,12.31-5.13c3.17-3.16,5.13-7.52,5.13-12.31V121.26  L416.81,121.26z M118.08,121.26H83.19v78.14c0,4.79,1.96,9.15,5.13,12.31c3.16,3.16,7.52,5.13,12.31,5.13s9.15-1.97,12.31-5.13  c3.17-3.16,5.13-7.52,5.13-12.31V121.26z"/><text x="0" y="515" fill="#000000" font-size="5px" font-weight="bold" font-family="'Helvetica Neue', Helvetica, Arial-Unicode, Arial, Sans-serif">Created by gingertea</text><text x="0" y="520" fill="#000000" font-size="5px" font-weight="bold" font-family="'Helvetica Neue', Helvetica, Arial-Unicode, Arial, Sans-serif">from the Noun Project</text></svg>