<svg xmlns="http://www.w3.org/2000/svg" viewBox="0 0 32 40" x="0px" y="0px"><path d="M30,18.48c0-1.36-1.11-2.48-2.48-2.48h-1.52V7c0-2.76-2.24-5-5-5h-1c-2.5,0-4.5,1.71-4.91,4.09-2.32,.43-4.09,2.46-4.09,4.91,0,.55,.45,1,1,1h8c.55,0,1-.45,1-1,0-2.37-1.66-4.35-3.89-4.86,.34-1.24,1.48-2.14,2.89-2.14h1c1.65,0,3,1.35,3,3v9H4.48c-1.36,0-2.48,1.11-2.48,2.52,0,.81,.4,1.52,1,1.98v2.5c0,3.86,3.14,7,7,7h12c3.86,0,7-3.14,7-7v-2.5c.6-.46,1-1.18,1-2.02Zm-11.17-8.48h-5.66c.41-1.16,1.52-2,2.83-2s2.42,.84,2.83,2ZM4.48,18H24.75c.08,.02,.16,.05,.25,.05s.17-.03,.25-.05h2.28c.26,0,.48,.21,.48,.52,0,.26-.21,.48-.48,.48H4.48c-.26,0-.48-.21-.48-.52,0-.26,.21-.48,.48-.48Zm22.52,5c0,2.76-2.24,5-5,5H10c-2.76,0-5-2.24-5-5v-2H27v2Z"/><text x="0" y="47" fill="#000000" font-size="5px" font-weight="bold" font-family="'Helvetica Neue', Helvetica, Arial-Unicode, Arial, Sans-serif">Created by Kinanthi Hayuningtyas</text><text x="0" y="52" fill="#000000" font-size="5px" font-weight="bold" font-family="'Helvetica Neue', Helvetica, Arial-Unicode, Arial, Sans-serif">from the Noun Project</text></svg>