<svg xmlns="http://www.w3.org/2000/svg" class="icon" viewBox="0 0 1024 1280" version="1.1" x="0px" y="0px"><path d="M654.3 441H643V323.6c0-37.8-26.3-69.4-61.4-78V140.8h106.6c38.8 0 70.3-31.6 70.3-70.3S727 0.1 688.2 0.1H451.3C412.5 0.1 381 31.7 381 70.4c0 35.7 26.9 65 61.4 69.4v105.8c-35.2 8.7-61.4 40.2-61.4 78V441h-11.3c-79.9 0-144.9 65-144.9 144.9v400.4c0 20.8 16.9 37.7 37.7 37.7h499.1c20.8 0 37.7-16.9 37.7-37.7V585.9c-0.1-79.9-65.1-144.9-145-144.9zM549.1 243.1h-74.2V140.8h74.2v102.3zM413.5 70.4c0-20.9 17-37.9 37.9-37.9h236.9c20.9 0 37.9 17 37.9 37.9s-17 37.9-37.9 37.9h-237c-20.9 0-37.8-17-37.8-37.9z m0 253.2c0-26.5 21.6-48.1 48.1-48.1h100.9c26.5 0 48.1 21.6 48.1 48.1V441H413.5V323.6z m353.2 662.6c0 2.9-2.3 5.2-5.2 5.2h-499c-2.9 0-5.2-2.3-5.2-5.2V585.9c0-62 50.4-112.4 112.4-112.4h284.6c62 0 112.4 50.4 112.4 112.4v400.3z" fill="#000000"/><path d="M742.3 275.6c-9 0-16.2-7.3-16.2-16.2V192c0-9 7.3-16.2 16.2-16.2s16.2 7.3 16.2 16.2v67.4c0 8.9-7.2 16.2-16.2 16.2zM338.9 915.5c-9 0-16.2-7.3-16.2-16.2V723c0-9 7.3-16.2 16.2-16.2 9 0 16.2 7.3 16.2 16.2v176.3c0.1 9-7.2 16.2-16.2 16.2zM338.9 672.9c-9 0-16.2-7.3-16.2-16.2v-36c0-9 7.3-16.2 16.2-16.2 9 0 16.2 7.3 16.2 16.2v36c0.1 8.9-7.2 16.2-16.2 16.2z" fill="#000000"/><text x="0" y="1039" fill="#000000" font-size="5px" font-weight="bold" font-family="'Helvetica Neue', Helvetica, Arial-Unicode, Arial, Sans-serif">Created by Tienan</text><text x="0" y="1044" fill="#000000" font-size="5px" font-weight="bold" font-family="'Helvetica Neue', Helvetica, Arial-Unicode, Arial, Sans-serif">from the Noun Project</text></svg>