<svg xmlns="http://www.w3.org/2000/svg" xmlns:xlink="http://www.w3.org/1999/xlink" xmlns:xodm="http://www.corel.com/coreldraw/odm/2003" xml:space="preserve" version="1.1" style="shape-rendering:geometricPrecision;text-rendering:geometricPrecision;image-rendering:optimizeQuality;" viewBox="0 0 846.66 1058.325" x="0px" y="0px" fill-rule="evenodd" clip-rule="evenodd"><defs><style type="text/css">
   
    .fil0 {fill:black;fill-rule:nonzero}
   
  </style></defs><g><path class="fil0" d="M148.65 686.13l0 -248.09c0,-29.33 20.92,-52.62 54.67,-70.05l0 -97.15c0,-60.5 24.75,-115.53 64.62,-155.4l0.75 -0.69c39.82,-39.47 94.54,-63.93 154.64,-63.93 60.47,0 115.49,24.76 155.36,64.65 39.9,39.84 64.65,94.87 64.65,155.37l0 97.76c33.74,17.41 54.67,40.54 54.67,69.44l0 248.09c0,54.08 -73.21,87.94 -166.69,101.95 -34.29,5.14 -71.65,7.73 -109.08,7.75 -37.46,0.02 -74.77,-2.53 -108.96,-7.66 -92.5,-13.9 -164.63,-47.59 -164.63,-102.04zm320.58 -156.59l13.3 96.44c0.93,6.93 -3.93,13.31 -10.86,14.24l-1.69 0.11 -93.31 0.04c-7.01,0 -12.7,-5.69 -12.7,-12.7l13.45 -98.15c-3.57,-4.35 -6.53,-9.25 -8.76,-14.52 -3.01,-7.16 -4.69,-14.96 -4.69,-23.04 0,-16.32 6.65,-31.16 17.39,-41.92l0.08 -0.08c10.75,-10.72 25.58,-17.36 41.89,-17.36 16.38,0 31.23,6.66 41.96,17.39 10.74,10.74 17.39,25.59 17.39,41.97 0,8.08 -1.68,15.89 -4.69,23.05 -2.23,5.29 -5.2,10.18 -8.76,14.53zm-13.79 85.43l-12.12 -87.89c-0.51,-3.84 0.73,-7.87 3.72,-10.77 3.25,-3.15 5.87,-6.94 7.63,-11.12 1.67,-3.98 2.61,-8.47 2.61,-13.23 0,-9.37 -3.81,-17.87 -9.95,-24.01 -6.13,-6.13 -14.63,-9.95 -24,-9.95 -9.4,0 -17.91,3.79 -24.01,9.9 -6.16,6.15 -9.95,14.65 -9.95,24.06 0,4.76 0.94,9.24 2.61,13.22 1.76,4.17 4.39,7.97 7.62,11.12 2.77,2.7 4.27,6.64 3.72,10.77l-12.12 87.9 64.24 0zm-226.72 -258.15c16.86,-6.33 35.75,-11.57 56.03,-15.76l0 -75.66c0,-38.12 15.59,-72.78 40.69,-97.88 25.1,-25.1 59.77,-40.69 97.89,-40.69 38.12,0 72.78,15.59 97.88,40.69 25.1,25.1 40.7,59.77 40.7,97.88l0 76.14c20.27,4.24 39.17,9.54 56.03,15.88l0 -86.58c0,-53.5 -21.91,-102.17 -57.18,-137.44 -35.23,-35.29 -83.9,-57.18 -137.43,-57.18 -53.23,0 -101.65,21.65 -136.84,56.54l-0.59 0.64c-35.27,35.27 -57.18,83.94 -57.18,137.44l0 85.98zm81.43 -20.33l3.13 -0.49c34.18,-5.13 71.5,-7.69 108.96,-7.67 37.43,0.02 74.79,2.62 109.08,7.75l5.19 0.8 0 -71.48c0,-31.1 -12.74,-59.4 -33.26,-79.92 -20.51,-20.51 -48.81,-33.25 -79.92,-33.25 -31.12,0 -59.42,12.74 -79.93,33.25 -20.51,20.51 -33.25,48.81 -33.25,79.92l0 71.09zm-136.1 101.55l0 248.09c0,39.05 62.67,64.87 143.01,76.94 33.29,5 69.31,7.47 105.18,7.46 35.9,-0.01 71.99,-2.54 105.4,-7.55 81.3,-12.18 144.97,-38.12 144.97,-76.85l0 -248.09c0,-38.72 -63.67,-64.67 -144.97,-76.86 -33.41,-5 -69.5,-7.54 -105.4,-7.55 -35.87,-0.01 -71.9,2.47 -105.18,7.47 -80.35,12.07 -143.01,37.88 -143.01,76.94z"/></g><text x="0" y="861.66" fill="#000000" font-size="5px" font-weight="bold" font-family="'Helvetica Neue', Helvetica, Arial-Unicode, Arial, Sans-serif">Created by Suharsono</text><text x="0" y="866.66" fill="#000000" font-size="5px" font-weight="bold" font-family="'Helvetica Neue', Helvetica, Arial-Unicode, Arial, Sans-serif">from the Noun Project</text></svg>