<svg xmlns="http://www.w3.org/2000/svg" xmlns:xlink="http://www.w3.org/1999/xlink" xmlns:xodm="http://www.corel.com/coreldraw/odm/2003" xml:space="preserve" version="1.1" style="shape-rendering:geometricPrecision;text-rendering:geometricPrecision;image-rendering:optimizeQuality;" viewBox="0 0 846.66 1058.325" x="0px" y="0px" fill-rule="evenodd" clip-rule="evenodd"><defs><style type="text/css">
   
    .fil0 {fill:black;fill-rule:nonzero}
   
  </style></defs><g><path class="fil0" d="M180.53 541.54c9.91,9.91 9.91,26.01 0,35.92 -9.91,9.91 -26.01,9.91 -35.92,0 -76.96,-76.96 -115.46,-177.86 -115.46,-278.72 0,-100.88 38.5,-201.77 115.46,-278.73 9.91,-9.91 26.01,-9.91 35.92,0 9.91,9.91 9.91,26.01 0,35.92 -67.04,67.04 -100.58,154.94 -100.58,242.81 0,87.87 33.54,175.76 100.58,242.8zm242.8 -387.45c39.93,0 76.1,16.2 102.27,42.37 26.17,26.17 42.37,62.35 42.37,102.28 0,27.25 -7.59,52.79 -20.74,74.6 -10.11,16.75 -23.57,31.3 -39.44,42.74l93.32 386.67c3.28,13.59 -5.07,27.28 -18.66,30.56 -1.99,0.48 -3.99,0.71 -5.95,0.71l-306.34 0.08c-14.02,0 -25.4,-11.38 -25.4,-25.4 0,-2.78 0.45,-5.45 1.27,-7.95l92.84 -384.67c-15.88,-11.43 -29.33,-25.98 -39.44,-42.73 -13.16,-21.81 -20.74,-47.36 -20.74,-74.61 0,-39.94 16.2,-76.11 42.37,-102.28 26.17,-26.17 62.34,-42.37 102.27,-42.37zm66.35 78.29c-16.97,-16.97 -40.45,-27.49 -66.35,-27.49 -25.9,0 -49.38,10.52 -66.35,27.49 -16.97,16.97 -27.49,40.45 -27.49,66.36 0,17.73 4.9,34.32 13.4,48.41 8.84,14.65 21.56,26.7 36.69,34.68 10.01,5.28 15.58,16.86 12.8,28.37l-90.04 373.1 241.98 0 -89.77 -372c-3.29,-11.32 1.7,-23.77 12.53,-29.47 15.13,-7.98 27.84,-20.03 36.69,-34.69 8.49,-14.09 13.4,-30.67 13.4,-48.4 0,-25.9 -10.52,-49.39 -27.49,-66.36zm-220.93 220.94c9.91,9.91 9.91,26.01 0,35.92 -9.91,9.91 -26.01,9.91 -35.92,0 -52.6,-52.61 -78.92,-121.57 -78.92,-190.5 0,-68.95 26.32,-137.89 78.91,-190.49 9.92,-9.92 26.02,-9.92 35.93,-0.01 9.91,9.91 9.91,26.01 0,35.92 -42.68,42.69 -64.04,98.64 -64.04,154.58 0,55.93 21.36,111.89 64.04,154.58zm309.16 -309.16c-9.91,-9.91 -9.91,-26.01 0,-35.92 9.91,-9.91 26.01,-9.91 35.92,0 52.59,52.6 78.91,121.55 78.91,190.5 0,68.93 -26.32,137.9 -78.91,190.5 -9.91,9.91 -26.01,9.91 -35.92,0 -9.91,-9.91 -9.91,-26.01 0,-35.92 42.67,-42.68 64.03,-98.65 64.03,-154.58 0,-55.94 -21.36,-111.9 -64.03,-154.58zm88.22 -88.23c-9.91,-9.91 -9.91,-26.01 0,-35.92 9.91,-9.91 26.01,-9.91 35.92,0 76.96,76.96 115.45,177.86 115.45,278.73 0,100.86 -38.49,201.76 -115.45,278.72 -9.91,9.91 -26.01,9.91 -35.92,0 -9.91,-9.91 -9.91,-26.01 0,-35.92 67.04,-67.04 100.57,-154.93 100.57,-242.8 0,-87.88 -33.53,-175.77 -100.57,-242.81z"/></g><text x="0" y="861.66" fill="#000000" font-size="5px" font-weight="bold" font-family="'Helvetica Neue', Helvetica, Arial-Unicode, Arial, Sans-serif">Created by Supreme Dreams</text><text x="0" y="866.66" fill="#000000" font-size="5px" font-weight="bold" font-family="'Helvetica Neue', Helvetica, Arial-Unicode, Arial, Sans-serif">from the Noun Project</text></svg>